<mxfile host="app.diagrams.net" modified="2022-10-26T17:31:53.923Z" agent="5.0 (Macintosh; Intel Mac OS X 10_15_7) AppleWebKit/537.36 (KHTML, like Gecko) Chrome/106.0.0.0 Safari/537.36" etag="e9unywtw1Qa8OwrrNjHM" version="20.5.1" type="github" pages="2">
  <diagram id="2F7PlmNA8KwAkaLONM8t" name="Page-1">
    <mxGraphModel dx="1351" dy="623" grid="1" gridSize="10" guides="1" tooltips="1" connect="1" arrows="1" fold="1" page="1" pageScale="1" pageWidth="3300" pageHeight="4681" math="0" shadow="1">
      <root>
        <mxCell id="0" />
        <mxCell id="1" parent="0" />
        <mxCell id="TSgOGWD9GSTZMh9P5ER6-11" style="edgeStyle=orthogonalEdgeStyle;rounded=0;orthogonalLoop=1;jettySize=auto;html=1;entryX=0.5;entryY=0;entryDx=0;entryDy=0;" parent="1" source="mKRCRx4T-LMMCA1vkFXD-2" target="TSgOGWD9GSTZMh9P5ER6-5" edge="1">
          <mxGeometry relative="1" as="geometry" />
        </mxCell>
        <mxCell id="mKRCRx4T-LMMCA1vkFXD-2" value="&lt;font style=&quot;font-size: 16px;&quot;&gt;Start&lt;/font&gt;" style="ellipse;whiteSpace=wrap;html=1;aspect=fixed;" parent="1" vertex="1">
          <mxGeometry x="360" y="60" width="160" height="160" as="geometry" />
        </mxCell>
        <mxCell id="W3dbQqCWbhaAqqRiF6k4-11" style="edgeStyle=orthogonalEdgeStyle;rounded=0;orthogonalLoop=1;jettySize=auto;html=1;entryX=0.5;entryY=0;entryDx=0;entryDy=0;" parent="1" source="mKRCRx4T-LMMCA1vkFXD-12" target="mKRCRx4T-LMMCA1vkFXD-18" edge="1">
          <mxGeometry relative="1" as="geometry" />
        </mxCell>
        <mxCell id="mKRCRx4T-LMMCA1vkFXD-12" value="&amp;nbsp;Notify the Owner" style="whiteSpace=wrap;html=1;" parent="1" vertex="1">
          <mxGeometry x="378.75" y="1030" width="120" height="60" as="geometry" />
        </mxCell>
        <mxCell id="W3dbQqCWbhaAqqRiF6k4-15" style="edgeStyle=orthogonalEdgeStyle;rounded=0;orthogonalLoop=1;jettySize=auto;html=1;entryX=0.5;entryY=0;entryDx=0;entryDy=0;" parent="1" source="mKRCRx4T-LMMCA1vkFXD-18" target="mKRCRx4T-LMMCA1vkFXD-20" edge="1">
          <mxGeometry relative="1" as="geometry" />
        </mxCell>
        <mxCell id="W3dbQqCWbhaAqqRiF6k4-16" value="Yes" style="edgeLabel;html=1;align=center;verticalAlign=middle;resizable=0;points=[];" parent="W3dbQqCWbhaAqqRiF6k4-15" vertex="1" connectable="0">
          <mxGeometry x="-0.12" y="3" relative="1" as="geometry">
            <mxPoint as="offset" />
          </mxGeometry>
        </mxCell>
        <mxCell id="W3dbQqCWbhaAqqRiF6k4-24" value="" style="edgeStyle=orthogonalEdgeStyle;rounded=0;orthogonalLoop=1;jettySize=auto;html=1;" parent="1" source="mKRCRx4T-LMMCA1vkFXD-18" target="W3dbQqCWbhaAqqRiF6k4-23" edge="1">
          <mxGeometry relative="1" as="geometry">
            <Array as="points">
              <mxPoint x="800" y="1150" />
            </Array>
          </mxGeometry>
        </mxCell>
        <mxCell id="mKRCRx4T-LMMCA1vkFXD-18" value="is Identity Approved &lt;br&gt;for Deletion&lt;br&gt;" style="rhombus;whiteSpace=wrap;html=1;" parent="1" vertex="1">
          <mxGeometry x="350" y="1150" width="180" height="120" as="geometry" />
        </mxCell>
        <mxCell id="mKRCRx4T-LMMCA1vkFXD-23" value="" style="edgeStyle=orthogonalEdgeStyle;rounded=0;orthogonalLoop=1;jettySize=auto;html=1;" parent="1" source="mKRCRx4T-LMMCA1vkFXD-20" edge="1">
          <mxGeometry relative="1" as="geometry">
            <mxPoint x="438.75" y="1520" as="targetPoint" />
          </mxGeometry>
        </mxCell>
        <mxCell id="mKRCRx4T-LMMCA1vkFXD-20" value="Notify Manager" style="whiteSpace=wrap;html=1;" parent="1" vertex="1">
          <mxGeometry x="380" y="1370" width="120" height="60" as="geometry" />
        </mxCell>
        <mxCell id="W3dbQqCWbhaAqqRiF6k4-7" style="edgeStyle=orthogonalEdgeStyle;rounded=0;orthogonalLoop=1;jettySize=auto;html=1;" parent="1" source="mKRCRx4T-LMMCA1vkFXD-26" edge="1">
          <mxGeometry relative="1" as="geometry">
            <mxPoint x="910" y="660" as="targetPoint" />
          </mxGeometry>
        </mxCell>
        <mxCell id="W3dbQqCWbhaAqqRiF6k4-8" value="Yes&lt;br&gt;" style="edgeLabel;html=1;align=center;verticalAlign=middle;resizable=0;points=[];" parent="W3dbQqCWbhaAqqRiF6k4-7" vertex="1" connectable="0">
          <mxGeometry x="0.0581" relative="1" as="geometry">
            <mxPoint as="offset" />
          </mxGeometry>
        </mxCell>
        <mxCell id="W3dbQqCWbhaAqqRiF6k4-9" style="edgeStyle=orthogonalEdgeStyle;rounded=0;orthogonalLoop=1;jettySize=auto;html=1;entryX=0.5;entryY=0;entryDx=0;entryDy=0;" parent="1" source="mKRCRx4T-LMMCA1vkFXD-26" target="mKRCRx4T-LMMCA1vkFXD-32" edge="1">
          <mxGeometry relative="1" as="geometry" />
        </mxCell>
        <mxCell id="W3dbQqCWbhaAqqRiF6k4-14" value="No" style="edgeLabel;html=1;align=center;verticalAlign=middle;resizable=0;points=[];" parent="W3dbQqCWbhaAqqRiF6k4-9" vertex="1" connectable="0">
          <mxGeometry x="0.072" y="-3" relative="1" as="geometry">
            <mxPoint as="offset" />
          </mxGeometry>
        </mxCell>
        <mxCell id="mKRCRx4T-LMMCA1vkFXD-26" value="Is Email Reminder&amp;nbsp;&lt;br&gt;about&lt;br&gt;&quot;unused identity violation&quot; &lt;br&gt;count&amp;nbsp;&lt;br&gt;exceed 10" style="rhombus;whiteSpace=wrap;html=1;" parent="1" vertex="1">
          <mxGeometry x="328.75" y="562.5" width="222.5" height="187.5" as="geometry" />
        </mxCell>
        <mxCell id="W3dbQqCWbhaAqqRiF6k4-13" value="" style="edgeStyle=orthogonalEdgeStyle;rounded=0;orthogonalLoop=1;jettySize=auto;html=1;" parent="1" source="mKRCRx4T-LMMCA1vkFXD-28" target="W3dbQqCWbhaAqqRiF6k4-12" edge="1">
          <mxGeometry relative="1" as="geometry" />
        </mxCell>
        <mxCell id="mKRCRx4T-LMMCA1vkFXD-28" value="Schedule Identity for Deactivation" style="whiteSpace=wrap;html=1;" parent="1" vertex="1">
          <mxGeometry x="910" y="630" width="120" height="60" as="geometry" />
        </mxCell>
        <mxCell id="6_Uud8Ccz9cRBMP16A3K-2" value="" style="edgeStyle=orthogonalEdgeStyle;rounded=0;orthogonalLoop=1;jettySize=auto;html=1;" parent="1" source="mKRCRx4T-LMMCA1vkFXD-32" target="6_Uud8Ccz9cRBMP16A3K-1" edge="1">
          <mxGeometry relative="1" as="geometry" />
        </mxCell>
        <mxCell id="mKRCRx4T-LMMCA1vkFXD-32" value="Send an Email Reminder&amp;nbsp;" style="whiteSpace=wrap;html=1;" parent="1" vertex="1">
          <mxGeometry x="378.75" y="810" width="120" height="60" as="geometry" />
        </mxCell>
        <mxCell id="W3dbQqCWbhaAqqRiF6k4-5" value="&lt;span style=&quot;&quot;&gt;Pacbot Notification System for UnUsed Identities&lt;br&gt;&lt;br&gt;for &lt;br&gt;&lt;br&gt;auto remediation&lt;br&gt;&lt;br&gt;&lt;/span&gt;" style="text;html=1;align=center;verticalAlign=middle;resizable=0;points=[];autosize=1;strokeColor=none;fillColor=none;" parent="1" vertex="1">
          <mxGeometry x="570" y="25" width="280" height="100" as="geometry" />
        </mxCell>
        <mxCell id="W3dbQqCWbhaAqqRiF6k4-12" value="End&lt;br&gt;" style="ellipse;whiteSpace=wrap;html=1;" parent="1" vertex="1">
          <mxGeometry x="1150" y="630" width="120" height="60" as="geometry" />
        </mxCell>
        <mxCell id="W3dbQqCWbhaAqqRiF6k4-20" value="" style="edgeStyle=orthogonalEdgeStyle;rounded=0;orthogonalLoop=1;jettySize=auto;html=1;" parent="1" source="W3dbQqCWbhaAqqRiF6k4-18" target="W3dbQqCWbhaAqqRiF6k4-19" edge="1">
          <mxGeometry relative="1" as="geometry" />
        </mxCell>
        <mxCell id="W3dbQqCWbhaAqqRiF6k4-26" style="edgeStyle=orthogonalEdgeStyle;rounded=0;orthogonalLoop=1;jettySize=auto;html=1;entryX=0.45;entryY=1.017;entryDx=0;entryDy=0;entryPerimeter=0;" parent="1" source="W3dbQqCWbhaAqqRiF6k4-18" target="W3dbQqCWbhaAqqRiF6k4-23" edge="1">
          <mxGeometry relative="1" as="geometry" />
        </mxCell>
        <mxCell id="W3dbQqCWbhaAqqRiF6k4-18" value="is Approved for Delete Identities" style="rhombus;whiteSpace=wrap;html=1;" parent="1" vertex="1">
          <mxGeometry x="380" y="1520" width="120" height="80" as="geometry" />
        </mxCell>
        <mxCell id="W3dbQqCWbhaAqqRiF6k4-22" value="" style="edgeStyle=orthogonalEdgeStyle;rounded=0;orthogonalLoop=1;jettySize=auto;html=1;" parent="1" source="W3dbQqCWbhaAqqRiF6k4-19" target="W3dbQqCWbhaAqqRiF6k4-21" edge="1">
          <mxGeometry relative="1" as="geometry" />
        </mxCell>
        <mxCell id="W3dbQqCWbhaAqqRiF6k4-19" value="Schedule to Delete The Identity, Remove the Identity from Schedule Job and pacbot violation will be removed over sub-sequent scan" style="whiteSpace=wrap;html=1;" parent="1" vertex="1">
          <mxGeometry x="353.75" y="1670" width="170" height="90" as="geometry" />
        </mxCell>
        <mxCell id="W3dbQqCWbhaAqqRiF6k4-21" value="Stop&lt;br&gt;" style="ellipse;whiteSpace=wrap;html=1;" parent="1" vertex="1">
          <mxGeometry x="380" y="1850" width="120" height="60" as="geometry" />
        </mxCell>
        <mxCell id="TSgOGWD9GSTZMh9P5ER6-14" style="edgeStyle=orthogonalEdgeStyle;rounded=0;orthogonalLoop=1;jettySize=auto;html=1;fontSize=16;" parent="1" source="W3dbQqCWbhaAqqRiF6k4-23" edge="1">
          <mxGeometry relative="1" as="geometry">
            <mxPoint x="440" y="560" as="targetPoint" />
            <Array as="points">
              <mxPoint x="800" y="560" />
              <mxPoint x="730" y="560" />
              <mxPoint x="730" y="563" />
            </Array>
          </mxGeometry>
        </mxCell>
        <mxCell id="W3dbQqCWbhaAqqRiF6k4-23" value="No Action, Next Reminder will continue till reaches max Count" style="whiteSpace=wrap;html=1;" parent="1" vertex="1">
          <mxGeometry x="750" y="1020" width="120" height="60" as="geometry" />
        </mxCell>
        <mxCell id="W3dbQqCWbhaAqqRiF6k4-25" value="NO" style="text;html=1;align=center;verticalAlign=middle;resizable=0;points=[];autosize=1;strokeColor=none;fillColor=none;" parent="1" vertex="1">
          <mxGeometry x="720" y="1135" width="40" height="30" as="geometry" />
        </mxCell>
        <mxCell id="TSgOGWD9GSTZMh9P5ER6-12" style="edgeStyle=orthogonalEdgeStyle;rounded=0;orthogonalLoop=1;jettySize=auto;html=1;entryX=0.5;entryY=0;entryDx=0;entryDy=0;fontSize=16;" parent="1" source="TSgOGWD9GSTZMh9P5ER6-5" target="mKRCRx4T-LMMCA1vkFXD-26" edge="1">
          <mxGeometry relative="1" as="geometry" />
        </mxCell>
        <mxCell id="TSgOGWD9GSTZMh9P5ER6-5" value="Pacbot System Identified the Unused Identity&lt;br&gt;&amp;nbsp;and&amp;nbsp; sending email to the Owner/Manager&lt;br&gt;Before Sending the Email below condition will check the No of days the Reminder has been sent.&amp;nbsp;&lt;br&gt;If User Doesn&#39;t Respond with in 10 Days, The Resource will be deactivated on 11 day&lt;br&gt;Every 3 days the severity level increases and go to Higher Level Management" style="whiteSpace=wrap;html=1;" parent="1" vertex="1">
          <mxGeometry x="297.5" y="280" width="282.5" height="150" as="geometry" />
        </mxCell>
        <mxCell id="TSgOGWD9GSTZMh9P5ER6-15" value="NO" style="text;html=1;align=center;verticalAlign=middle;resizable=0;points=[];autosize=1;strokeColor=none;fillColor=none;" parent="1" vertex="1">
          <mxGeometry x="720" y="1445" width="40" height="30" as="geometry" />
        </mxCell>
        <mxCell id="6_Uud8Ccz9cRBMP16A3K-4" style="edgeStyle=orthogonalEdgeStyle;rounded=0;orthogonalLoop=1;jettySize=auto;html=1;entryX=0;entryY=0.5;entryDx=0;entryDy=0;" parent="1" source="6_Uud8Ccz9cRBMP16A3K-1" target="mKRCRx4T-LMMCA1vkFXD-20" edge="1">
          <mxGeometry relative="1" as="geometry">
            <mxPoint x="360" y="1400" as="targetPoint" />
            <Array as="points">
              <mxPoint x="220" y="935" />
              <mxPoint x="220" y="1400" />
            </Array>
          </mxGeometry>
        </mxCell>
        <mxCell id="zpImuzzT8QHTjH529TkA-2" style="edgeStyle=orthogonalEdgeStyle;rounded=0;orthogonalLoop=1;jettySize=auto;html=1;entryX=0.5;entryY=0;entryDx=0;entryDy=0;" edge="1" parent="1" source="6_Uud8Ccz9cRBMP16A3K-1" target="mKRCRx4T-LMMCA1vkFXD-12">
          <mxGeometry relative="1" as="geometry" />
        </mxCell>
        <mxCell id="6_Uud8Ccz9cRBMP16A3K-1" value="is Owner Approved" style="rhombus;whiteSpace=wrap;html=1;" parent="1" vertex="1">
          <mxGeometry x="378.75" y="900" width="118.75" height="70" as="geometry" />
        </mxCell>
      </root>
    </mxGraphModel>
  </diagram>
  <diagram id="825jTVbD74pwmTZDXjiH" name="Page-2">
    <mxGraphModel dx="1351" dy="623" grid="1" gridSize="10" guides="1" tooltips="1" connect="1" arrows="1" fold="1" page="1" pageScale="1" pageWidth="850" pageHeight="1100" background="#DAD2D8" math="0" shadow="0">
      <root>
        <mxCell id="0" />
        <mxCell id="1" parent="0" />
        <mxCell id="1SHm4hPK-HVv81CH3Bw4-1" value="&lt;span&gt;Pacbot Notification System&lt;br&gt;to remove unused IAM Identities-User and Role&lt;/span&gt;" style="text;html=1;align=center;verticalAlign=middle;resizable=0;points=[];autosize=1;strokeColor=none;fillColor=none;fontColor=#143642;rounded=1;" parent="1" vertex="1">
          <mxGeometry x="260" y="5" width="280" height="40" as="geometry" />
        </mxCell>
        <mxCell id="a-1qxkQPkkysgRtW_MTr-1" value="Start" style="ellipse;whiteSpace=wrap;html=1;fillColor=#FAE5C7;strokeColor=#0F8B8D;fontColor=#143642;rounded=1;" parent="1" vertex="1">
          <mxGeometry x="340" y="60" width="120" height="50" as="geometry" />
        </mxCell>
        <mxCell id="7wdDZhYkI96YHoR5jbr_-1" value="Identify the unused accounts and roles and notify the owner" style="rounded=0;whiteSpace=wrap;html=1;fillColor=#FAE5C7;strokeColor=#0F8B8D;fontColor=#143642;" parent="1" vertex="1">
          <mxGeometry x="340" y="150" width="120" height="60" as="geometry" />
        </mxCell>
        <mxCell id="zMxUUMqIKeQ8fVVgzI87-1" value="&amp;nbsp;Is no of Email Reminders exceed max count" style="rhombus;whiteSpace=wrap;html=1;fillColor=#FAE5C7;strokeColor=#0F8B8D;fontColor=#143642;rounded=1;" parent="1" vertex="1">
          <mxGeometry x="325" y="240" width="150" height="160" as="geometry" />
        </mxCell>
        <mxCell id="ic0EezxAscp7aKQCOM13-2" value="Send the Email Reminder" style="rounded=0;whiteSpace=wrap;html=1;strokeColor=#0F8B8D;fontColor=#143642;fillColor=#FAE5C7;" parent="1" vertex="1">
          <mxGeometry x="340" y="440" width="120" height="60" as="geometry" />
        </mxCell>
        <mxCell id="94RmXtZy_hZAy45wh5ry-2" value="&lt;span style=&quot;color: rgb(0, 0, 0);&quot;&gt;is Approved for Deletion by Owner&lt;/span&gt;" style="rhombus;whiteSpace=wrap;html=1;fillColor=#FAE5C7;strokeColor=#0F8B8D;fontColor=#143642;rounded=1;" parent="1" vertex="1">
          <mxGeometry x="315" y="540" width="170" height="160" as="geometry" />
        </mxCell>
        <mxCell id="DrW6kKM9lPLiyRGYpazw-1" value="Notify the Manager" style="rounded=0;whiteSpace=wrap;html=1;strokeColor=#0F8B8D;fontColor=#143642;fillColor=#FAE5C7;" parent="1" vertex="1">
          <mxGeometry x="325" y="740" width="150" height="60" as="geometry" />
        </mxCell>
        <mxCell id="DK-w31bb5x8y7gX2XaGW-3" value="&lt;span style=&quot;color: rgb(0, 0, 0);&quot;&gt;is Approved for Deletion by Manager&lt;/span&gt;" style="rhombus;whiteSpace=wrap;html=1;fillColor=#FAE5C7;strokeColor=#0F8B8D;fontColor=#143642;rounded=1;" parent="1" vertex="1">
          <mxGeometry x="315" y="840" width="170" height="160" as="geometry" />
        </mxCell>
        <mxCell id="vRnMGKTtuLfXFsGvwRMY-1" value="Remove the identity from scheduled JOB" style="rounded=0;whiteSpace=wrap;html=1;strokeColor=#0F8B8D;fontColor=#143642;fillColor=#FAE5C7;" parent="1" vertex="1">
          <mxGeometry x="335" y="1110" width="120" height="60" as="geometry" />
        </mxCell>
        <mxCell id="vRnMGKTtuLfXFsGvwRMY-2" value="Mark the identity for Deletion" style="rounded=0;whiteSpace=wrap;html=1;strokeColor=#0F8B8D;fontColor=#143642;fillColor=#FAE5C7;" parent="1" vertex="1">
          <mxGeometry x="335" y="1220" width="120" height="60" as="geometry" />
        </mxCell>
        <mxCell id="NFCe-IUsvdAm8rzY-eAQ-1" value="End" style="ellipse;whiteSpace=wrap;html=1;rounded=0;strokeColor=#0F8B8D;fontColor=#143642;fillColor=#FAE5C7;" parent="1" vertex="1">
          <mxGeometry x="335" y="1320" width="120" height="80" as="geometry" />
        </mxCell>
        <mxCell id="08QDFl62JGAp28Ak1xsh-1" value="" style="endArrow=classic;html=1;rounded=1;strokeColor=#A8201A;fontColor=#143642;fillColor=#FAE5C7;" parent="1" edge="1">
          <mxGeometry width="50" height="50" relative="1" as="geometry">
            <mxPoint x="680" y="1050" as="sourcePoint" />
            <mxPoint x="400" y="1050" as="targetPoint" />
          </mxGeometry>
        </mxCell>
        <mxCell id="08QDFl62JGAp28Ak1xsh-2" value="" style="endArrow=none;html=1;rounded=1;strokeColor=#A8201A;fontColor=#143642;fillColor=#FAE5C7;" parent="1" edge="1">
          <mxGeometry width="50" height="50" relative="1" as="geometry">
            <mxPoint x="680" y="1050" as="sourcePoint" />
            <mxPoint x="680" y="320" as="targetPoint" />
          </mxGeometry>
        </mxCell>
        <mxCell id="08QDFl62JGAp28Ak1xsh-3" value="" style="endArrow=none;html=1;rounded=1;strokeColor=#A8201A;fontColor=#143642;fillColor=#FAE5C7;exitX=1;exitY=0.5;exitDx=0;exitDy=0;" parent="1" source="zMxUUMqIKeQ8fVVgzI87-1" edge="1">
          <mxGeometry width="50" height="50" relative="1" as="geometry">
            <mxPoint x="650" y="380" as="sourcePoint" />
            <mxPoint x="680" y="320" as="targetPoint" />
          </mxGeometry>
        </mxCell>
        <mxCell id="08QDFl62JGAp28Ak1xsh-4" value="Yes" style="text;html=1;strokeColor=none;fillColor=none;align=center;verticalAlign=middle;whiteSpace=wrap;rounded=0;fontColor=#143642;" parent="1" vertex="1">
          <mxGeometry x="520" y="290" width="60" height="30" as="geometry" />
        </mxCell>
        <mxCell id="08QDFl62JGAp28Ak1xsh-7" value="" style="endArrow=classic;html=1;rounded=1;strokeColor=#A8201A;fontColor=#143642;fillColor=#FAE5C7;exitX=0.5;exitY=1;exitDx=0;exitDy=0;entryX=0.5;entryY=0;entryDx=0;entryDy=0;" parent="1" source="vRnMGKTtuLfXFsGvwRMY-1" target="vRnMGKTtuLfXFsGvwRMY-2" edge="1">
          <mxGeometry width="50" height="50" relative="1" as="geometry">
            <mxPoint x="385" y="1210" as="sourcePoint" />
            <mxPoint x="410" y="1210" as="targetPoint" />
          </mxGeometry>
        </mxCell>
        <mxCell id="08QDFl62JGAp28Ak1xsh-8" value="" style="endArrow=classic;html=1;rounded=1;strokeColor=#A8201A;fontColor=#143642;fillColor=#FAE5C7;exitX=0.5;exitY=1;exitDx=0;exitDy=0;" parent="1" source="DK-w31bb5x8y7gX2XaGW-3" edge="1">
          <mxGeometry width="50" height="50" relative="1" as="geometry">
            <mxPoint x="360" y="1050" as="sourcePoint" />
            <mxPoint x="400" y="1100" as="targetPoint" />
          </mxGeometry>
        </mxCell>
        <mxCell id="08QDFl62JGAp28Ak1xsh-9" value="" style="endArrow=classic;html=1;rounded=1;strokeColor=#A8201A;fontColor=#143642;fillColor=#FAE5C7;exitX=0.5;exitY=1;exitDx=0;exitDy=0;entryX=0.5;entryY=0;entryDx=0;entryDy=0;" parent="1" source="vRnMGKTtuLfXFsGvwRMY-2" target="NFCe-IUsvdAm8rzY-eAQ-1" edge="1">
          <mxGeometry width="50" height="50" relative="1" as="geometry">
            <mxPoint x="405" y="1330" as="sourcePoint" />
            <mxPoint x="395" y="1310" as="targetPoint" />
          </mxGeometry>
        </mxCell>
        <mxCell id="08QDFl62JGAp28Ak1xsh-10" value="" style="endArrow=classic;html=1;rounded=1;strokeColor=#A8201A;fontColor=#143642;fillColor=#FAE5C7;entryX=0.5;entryY=0;entryDx=0;entryDy=0;exitX=0.5;exitY=1;exitDx=0;exitDy=0;" parent="1" source="DrW6kKM9lPLiyRGYpazw-1" target="DK-w31bb5x8y7gX2XaGW-3" edge="1">
          <mxGeometry width="50" height="50" relative="1" as="geometry">
            <mxPoint x="385" y="830" as="sourcePoint" />
            <mxPoint x="435" y="780" as="targetPoint" />
          </mxGeometry>
        </mxCell>
        <mxCell id="08QDFl62JGAp28Ak1xsh-11" value="" style="endArrow=classic;html=1;rounded=1;strokeColor=#A8201A;fontColor=#143642;fillColor=#FAE5C7;entryX=0.5;entryY=0;entryDx=0;entryDy=0;" parent="1" target="DrW6kKM9lPLiyRGYpazw-1" edge="1">
          <mxGeometry width="50" height="50" relative="1" as="geometry">
            <mxPoint x="400" y="700" as="sourcePoint" />
            <mxPoint x="420" y="730" as="targetPoint" />
          </mxGeometry>
        </mxCell>
        <mxCell id="08QDFl62JGAp28Ak1xsh-14" value="" style="endArrow=classic;html=1;rounded=1;strokeColor=#A8201A;fontColor=#143642;fillColor=#FAE5C7;exitX=0.5;exitY=1;exitDx=0;exitDy=0;entryX=0.5;entryY=0;entryDx=0;entryDy=0;" parent="1" source="zMxUUMqIKeQ8fVVgzI87-1" target="ic0EezxAscp7aKQCOM13-2" edge="1">
          <mxGeometry width="50" height="50" relative="1" as="geometry">
            <mxPoint x="425" y="420" as="sourcePoint" />
            <mxPoint x="475" y="370" as="targetPoint" />
          </mxGeometry>
        </mxCell>
        <mxCell id="08QDFl62JGAp28Ak1xsh-15" value="" style="endArrow=classic;html=1;rounded=1;strokeColor=#A8201A;fontColor=#143642;fillColor=#FAE5C7;entryX=0.5;entryY=0;entryDx=0;entryDy=0;" parent="1" target="94RmXtZy_hZAy45wh5ry-2" edge="1">
          <mxGeometry width="50" height="50" relative="1" as="geometry">
            <mxPoint x="400" y="500" as="sourcePoint" />
            <mxPoint x="410" y="530" as="targetPoint" />
          </mxGeometry>
        </mxCell>
        <mxCell id="08QDFl62JGAp28Ak1xsh-16" value="" style="endArrow=classic;html=1;rounded=1;strokeColor=#A8201A;fontColor=#143642;fillColor=#FAE5C7;exitX=0.5;exitY=1;exitDx=0;exitDy=0;entryX=0.5;entryY=0;entryDx=0;entryDy=0;" parent="1" source="7wdDZhYkI96YHoR5jbr_-1" target="zMxUUMqIKeQ8fVVgzI87-1" edge="1">
          <mxGeometry width="50" height="50" relative="1" as="geometry">
            <mxPoint x="530" y="240" as="sourcePoint" />
            <mxPoint x="580" y="190" as="targetPoint" />
          </mxGeometry>
        </mxCell>
        <mxCell id="08QDFl62JGAp28Ak1xsh-17" value="" style="endArrow=classic;html=1;rounded=1;strokeColor=#A8201A;fontColor=#143642;fillColor=#FAE5C7;exitX=0.5;exitY=1;exitDx=0;exitDy=0;entryX=0.5;entryY=0;entryDx=0;entryDy=0;" parent="1" source="a-1qxkQPkkysgRtW_MTr-1" target="7wdDZhYkI96YHoR5jbr_-1" edge="1">
          <mxGeometry width="50" height="50" relative="1" as="geometry">
            <mxPoint x="460" y="120" as="sourcePoint" />
            <mxPoint x="510" y="70" as="targetPoint" />
          </mxGeometry>
        </mxCell>
        <mxCell id="08QDFl62JGAp28Ak1xsh-18" value="No" style="text;html=1;strokeColor=none;fillColor=none;align=center;verticalAlign=middle;whiteSpace=wrap;rounded=0;fontColor=#143642;" parent="1" vertex="1">
          <mxGeometry x="400" y="400" width="60" height="30" as="geometry" />
        </mxCell>
        <mxCell id="08QDFl62JGAp28Ak1xsh-21" value="Yes" style="text;html=1;strokeColor=none;fillColor=none;align=center;verticalAlign=middle;whiteSpace=wrap;rounded=0;fontColor=#143642;" parent="1" vertex="1">
          <mxGeometry x="400" y="700" width="60" height="30" as="geometry" />
        </mxCell>
        <mxCell id="08QDFl62JGAp28Ak1xsh-22" value="" style="endArrow=classic;html=1;rounded=1;strokeColor=#A8201A;fontColor=#143642;fillColor=#FAE5C7;" parent="1" edge="1">
          <mxGeometry width="50" height="50" relative="1" as="geometry">
            <mxPoint x="200" y="480" as="sourcePoint" />
            <mxPoint x="340" y="480" as="targetPoint" />
          </mxGeometry>
        </mxCell>
        <mxCell id="08QDFl62JGAp28Ak1xsh-25" value="" style="endArrow=none;html=1;rounded=1;strokeColor=#A8201A;fontColor=#143642;fillColor=#FAE5C7;" parent="1" edge="1">
          <mxGeometry width="50" height="50" relative="1" as="geometry">
            <mxPoint x="200" y="620" as="sourcePoint" />
            <mxPoint x="200" y="480" as="targetPoint" />
          </mxGeometry>
        </mxCell>
        <mxCell id="08QDFl62JGAp28Ak1xsh-26" value="" style="endArrow=none;html=1;rounded=1;strokeColor=#A8201A;fontColor=#143642;fillColor=#FAE5C7;entryX=0;entryY=0.5;entryDx=0;entryDy=0;" parent="1" target="94RmXtZy_hZAy45wh5ry-2" edge="1">
          <mxGeometry width="50" height="50" relative="1" as="geometry">
            <mxPoint x="200" y="620" as="sourcePoint" />
            <mxPoint x="260" y="600" as="targetPoint" />
          </mxGeometry>
        </mxCell>
        <mxCell id="08QDFl62JGAp28Ak1xsh-27" value="No" style="text;html=1;strokeColor=none;fillColor=none;align=center;verticalAlign=middle;whiteSpace=wrap;rounded=0;fontColor=#143642;" parent="1" vertex="1">
          <mxGeometry x="230" y="590" width="60" height="30" as="geometry" />
        </mxCell>
        <mxCell id="08QDFl62JGAp28Ak1xsh-28" value="Yes" style="text;html=1;strokeColor=none;fillColor=none;align=center;verticalAlign=middle;whiteSpace=wrap;rounded=0;fontColor=#143642;" parent="1" vertex="1">
          <mxGeometry x="340" y="1050" width="60" height="30" as="geometry" />
        </mxCell>
        <mxCell id="08QDFl62JGAp28Ak1xsh-30" value="" style="endArrow=none;html=1;rounded=1;strokeColor=#A8201A;fontColor=#143642;fillColor=#FAE5C7;entryX=0;entryY=0.5;entryDx=0;entryDy=0;" parent="1" target="DK-w31bb5x8y7gX2XaGW-3" edge="1">
          <mxGeometry width="50" height="50" relative="1" as="geometry">
            <mxPoint x="220" y="920" as="sourcePoint" />
            <mxPoint x="290" y="910" as="targetPoint" />
          </mxGeometry>
        </mxCell>
        <mxCell id="08QDFl62JGAp28Ak1xsh-31" value="No" style="text;html=1;strokeColor=none;fillColor=none;align=center;verticalAlign=middle;whiteSpace=wrap;rounded=0;fontColor=#143642;" parent="1" vertex="1">
          <mxGeometry x="240" y="890" width="60" height="30" as="geometry" />
        </mxCell>
        <mxCell id="08QDFl62JGAp28Ak1xsh-32" value="" style="endArrow=classic;html=1;rounded=1;strokeColor=#A8201A;fontColor=#143642;fillColor=#FAE5C7;entryX=0;entryY=0.5;entryDx=0;entryDy=0;" parent="1" target="DrW6kKM9lPLiyRGYpazw-1" edge="1">
          <mxGeometry width="50" height="50" relative="1" as="geometry">
            <mxPoint x="220" y="770" as="sourcePoint" />
            <mxPoint x="280" y="750" as="targetPoint" />
          </mxGeometry>
        </mxCell>
        <mxCell id="08QDFl62JGAp28Ak1xsh-33" value="" style="endArrow=none;html=1;rounded=1;strokeColor=#A8201A;fontColor=#143642;fillColor=#FAE5C7;" parent="1" edge="1">
          <mxGeometry width="50" height="50" relative="1" as="geometry">
            <mxPoint x="220" y="920" as="sourcePoint" />
            <mxPoint x="220" y="770" as="targetPoint" />
          </mxGeometry>
        </mxCell>
      </root>
    </mxGraphModel>
  </diagram>
</mxfile>
